<svg width="150" height="150" xmlns="http://www.w3.org/2000/svg">

 <g>
  <title>window</title>
  <ellipse stroke="#000" ry="65.83318" rx="65.83318" id="svg_4" cy="74" cx="75.10695" stroke-width="0" fill="#40b4f7"/>
  <rect transform="rotate(51 104.996 64.1544)" stroke="#000" id="svg_7" height="76.55338" width="5" y="25.87769" x="102.49583" stroke-width="0" fill="#8dd2f4"/>
  <rect transform="rotate(51 108.609 82.4783)" stroke="#000" id="svg_8" height="83.53995" width="5" y="40.70834" x="106.10916" stroke-width="0" fill="#8dd2f4"/>
  <rect transform="rotate(51 40.763 57.7135)" stroke="#000" id="svg_11" height="88.07329" width="5" y="13.67683" x="38.26304" stroke-width="0" fill="#8dd2f4"/>
  <rect transform="rotate(51 43.5481 76.4477)" stroke="#000" id="svg_12" height="84.52723" width="5" y="34.18406" x="41.04807" stroke-width="0" fill="#8dd2f4"/>
  <rect stroke-width="0" stroke="#999999" id="svg_6" height="139.16634" width="10" y="4.58332" x="70" fill="#999999"/>
  <ellipse ry="0.20833" rx="14.37497" id="svg_9" cy="94.22029" cx="91.14859" stroke-width="6" stroke="#191919" fill="#000000"/>
  <path stroke="#999999" id="svg_13" d="m74.58317,144.49967c-38.44374,0 -69.58317,-31.13943 -69.58317,-69.58317c0,-38.44374 31.13943,-69.58317 69.58317,-69.58317c38.44374,0 69.58317,31.13943 69.58317,69.58317c0,38.44374 -31.13943,69.58317 -69.58317,69.58317z" opacity="undefined" stroke-width="10" fill="none"/>
 </g>
</svg>